<svg width="185" height="28" viewBox="0 0 185 28" fill="none" xmlns="http://www.w3.org/2000/svg">
<path d="M35.6708 11.7455L30.7171 15.1357C28.3812 16.7518 26.0453 18.349 23.7209 19.9613C23.6181 20.058 23.4817 20.1119 23.3398 20.1119C23.1979 20.1119 23.0615 20.058 22.9587 19.9613C19.1482 17.3369 15.3376 14.7189 11.527 12.1071C11.3898 12.0129 11.245 11.9263 11.0202 11.7831V12.3971C11.0202 16.9175 11.0202 21.4379 11.0202 25.9583C11.0311 26.0952 11.0068 26.2327 10.9495 26.3578C10.8922 26.483 10.8038 26.5918 10.6925 26.674C10.1895 27.0733 9.71317 27.5028 9.13015 27.9962V27.435C9.13015 21.9452 9.13015 16.4554 9.13015 10.9657C9.14353 10.8075 9.11168 10.6487 9.03825 10.5075C8.96482 10.3664 8.85274 10.2484 8.7148 10.1671C5.95975 8.2836 3.21994 6.40011 0.472512 4.51662C0.346763 4.42998 0.224824 4.33957 0 4.17005C1.14317 4.17005 2.14917 4.17005 3.16278 4.17005C3.31548 4.20481 3.45615 4.27889 3.57051 4.38477L8.66526 7.87677C8.79101 7.96341 8.92057 8.03875 9.12253 8.16306V0C9.71698 0.425669 10.2276 0.802368 10.7496 1.164C14.5679 3.79335 18.3708 6.4202 22.1585 9.04453C22.5396 9.30069 22.9206 9.72636 23.3017 9.72259C23.6828 9.71882 24.0638 9.28939 24.4449 9.02946L35.9986 1.05099C36.4749 0.723261 36.9626 0.406835 37.5228 0.0414371V8.17059C37.7209 8.05381 37.8429 7.99354 37.9534 7.9182C39.6643 6.74667 41.3829 5.56384 43.09 4.40361C43.3182 4.25891 43.5813 4.17699 43.8522 4.16629C44.7438 4.13615 45.6355 4.16629 46.6529 4.16629C46.4319 4.33203 46.3138 4.42621 46.1919 4.50908C43.4482 6.39257 40.7046 8.27607 37.9496 10.1596C37.8051 10.2453 37.6881 10.3697 37.6119 10.5183C37.5357 10.6669 37.5035 10.8337 37.519 10.9996C37.519 16.4592 37.519 21.9176 37.519 27.3747V28C36.8636 27.4237 36.2805 26.9377 35.7318 26.4141C35.6366 26.3237 35.6442 26.0977 35.6442 25.9357C35.6442 21.4279 35.6442 16.92 35.6442 12.4122L35.6708 11.7455ZM11.0431 3.86116C11.0431 5.74465 11.0431 7.5189 11.0431 9.29315C11.0808 9.44954 11.1793 9.58491 11.3174 9.66985C15.2423 12.372 19.1558 15.0667 23.0578 17.7538C23.1373 17.8261 23.2413 17.8662 23.3493 17.8662C23.4573 17.8662 23.5614 17.8261 23.6408 17.7538C27.548 15.0592 31.4563 12.367 35.366 9.67739C35.4501 9.60799 35.5191 9.52248 35.5689 9.42602C35.6186 9.32956 35.6481 9.22414 35.6556 9.11611C35.6823 8.00861 35.6556 6.90112 35.6556 5.79362V3.79712L23.3017 12.318L11.0431 3.86116Z" fill="#151515"/>
<path d="M56.1646 20.9908V7.44238H57.6677L62.955 15.7388L68.2723 7.44238H69.7528V20.9908H68.1407V10.4129L62.955 18.4251L57.7654 10.4129V20.9908H56.1646Z" fill="#151515"/>
<path d="M71.1117 20.9906L76.2512 10.1519H77.2468L82.4352 20.9906H80.7408L79.4259 18.2346H74.0835L72.7798 20.9906H71.1117ZM74.771 16.8001H78.7271L76.7622 12.654L74.771 16.8001Z" fill="#151515"/>
<path d="M85.9214 20.9906V11.6617H81.5291V10.1519H91.9468V11.6617H87.5429V20.9906H85.9214Z" fill="#151515"/>
<path d="M93.7589 10.1519H95.3435V16.8992C95.3435 17.9109 95.572 18.5928 96.029 18.9449C96.486 19.2969 97.3901 19.4742 98.7412 19.4768C100.102 19.4768 101.011 19.2995 101.468 18.9449C101.925 18.5902 102.154 17.9083 102.154 16.8992V10.1519H103.724V17.3294C103.724 18.6202 103.333 19.5524 102.551 20.1261C101.769 20.6998 100.492 20.988 98.7187 20.9906C96.953 20.9906 95.6856 20.7076 94.9164 20.1418C94.1472 19.5759 93.7613 18.6385 93.7589 17.3294V10.1519Z" fill="#151515"/>
<path d="M105.988 19.362L106.764 18.0201C107.49 18.4944 108.281 18.8656 109.113 19.1225C109.899 19.3712 110.72 19.4994 111.547 19.5026C112.337 19.5391 113.12 19.346 113.798 18.9476C114.057 18.8029 114.272 18.5945 114.422 18.343C114.573 18.0916 114.653 17.8059 114.656 17.5145C114.668 17.2477 114.601 16.9832 114.463 16.7527C114.325 16.5222 114.123 16.3353 113.88 16.2144C113.106 15.8835 112.266 15.7264 111.423 15.7545C109.521 15.7291 108.215 15.5137 107.506 15.1082C107.154 14.9008 106.868 14.6013 106.68 14.2434C106.492 13.8855 106.41 13.4833 106.442 13.0821C106.436 12.6607 106.54 12.2448 106.744 11.8737C106.948 11.5025 107.245 11.1884 107.607 10.9609C108.544 10.3832 109.641 10.103 110.747 10.1588C111.632 10.1599 112.512 10.288 113.36 10.539C114.221 10.7945 115.043 11.1655 115.801 11.6414L114.982 12.9719C114.333 12.5429 113.624 12.2063 112.878 11.9721C112.183 11.7454 111.456 11.6261 110.724 11.6186C110.062 11.5889 109.404 11.7292 108.814 12.0253C108.604 12.1192 108.424 12.2692 108.297 12.458C108.169 12.6469 108.098 12.8671 108.092 13.0935C108.089 13.3104 108.158 13.5225 108.289 13.6975C108.42 13.8725 108.606 14.0008 108.818 14.0628C109.637 14.299 110.492 14.3967 111.345 14.3518C113.009 14.3518 114.265 14.6267 115.114 15.1767C115.528 15.4375 115.865 15.8002 116.091 16.2284C116.317 16.6567 116.425 17.1355 116.403 17.6171C116.404 18.0915 116.287 18.559 116.061 18.979C115.836 19.399 115.51 19.7588 115.11 20.0272C114.134 20.7011 112.957 21.0381 111.764 20.9852C110.743 20.9835 109.728 20.8401 108.748 20.5594C107.774 20.2917 106.845 19.8884 105.988 19.362Z" fill="#151515"/>
<path d="M131.615 16.371C131.424 16.6343 131.219 16.8871 130.999 17.1283C130.771 17.3729 130.529 17.6042 130.273 17.8212L132.711 20.5248H130.547L129.033 18.8663C128.244 19.5271 127.36 20.0719 126.408 20.4831C125.563 20.8255 124.656 20.9981 123.74 20.9905C122.209 20.9905 120.981 20.6005 120.058 19.8205C119.602 19.4348 119.24 18.9546 119.001 18.4152C118.761 17.8759 118.649 17.2911 118.673 16.7042C118.662 15.6984 119.014 14.7205 119.668 13.94C120.52 12.9943 121.572 12.2386 122.753 11.7249L119.06 7.44238H127.976L128.912 8.88504H122.527L129.158 16.4884C129.512 16.1451 129.786 15.8686 129.981 15.6591C130.176 15.4509 130.371 15.235 130.523 15.0192L131.615 16.371ZM128.031 17.6584L123.83 12.8987C122.878 13.2506 122.02 13.8073 121.322 14.527C120.783 15.1033 120.485 15.8541 120.487 16.6323C120.474 17.0144 120.547 17.3947 120.702 17.7461C120.857 18.0976 121.09 18.4115 121.384 18.6656C122.034 19.2047 122.87 19.4847 123.725 19.4494C124.471 19.446 125.209 19.2939 125.893 19.0026C126.677 18.6717 127.399 18.2175 128.031 17.6584Z" fill="#151515"/>
<path d="M134.976 20.9908V7.44238H136.562V14.1913L143.883 7.44238H145.967L140.808 12.2564L146.753 20.9908H144.833L139.663 13.422L136.562 16.1768V20.9908H134.976Z" fill="#151515"/>
<path d="M153.292 20.9906H152.45L147.206 10.1519H148.94L152.865 18.2608L156.729 10.1519H158.529L153.292 20.9906Z" fill="#151515"/>
<path d="M161.7 10.1519H160.341V20.9906H161.7V10.1519Z" fill="#151515"/>
<path d="M167.904 20.9906V11.6617H163.512V10.1519H173.929V11.6617H169.525V20.9906H167.904Z" fill="#151515"/>
<path d="M174.835 19.362L175.579 18.0201C176.275 18.4943 177.033 18.8654 177.831 19.1225C178.585 19.3711 179.372 19.4994 180.164 19.5026C180.921 19.5389 181.672 19.3458 182.322 18.9476C182.57 18.8029 182.776 18.5945 182.92 18.3431C183.064 18.0916 183.142 17.806 183.144 17.5145C183.156 17.2477 183.091 16.9833 182.959 16.7527C182.827 16.5222 182.633 16.3354 182.4 16.2145C181.658 15.8835 180.854 15.7263 180.045 15.7545C178.224 15.7292 176.972 15.5138 176.29 15.1083C175.952 14.9012 175.678 14.6018 175.498 14.2438C175.317 13.8858 175.239 13.4834 175.271 13.0822C175.265 12.6608 175.364 12.2449 175.56 11.8738C175.755 11.5026 176.04 11.1885 176.387 10.961C177.285 10.3828 178.337 10.1026 179.397 10.1589C180.246 10.1599 181.089 10.288 181.902 10.5391C182.728 10.7945 183.515 11.1654 184.242 11.6415L183.457 12.9719C182.834 12.5429 182.155 12.2063 181.44 11.9722C180.774 11.7456 180.077 11.6263 179.375 11.6187C178.74 11.5892 178.109 11.7294 177.544 12.0254C177.342 12.1193 177.171 12.2693 177.048 12.4581C176.926 12.647 176.858 12.8672 176.852 13.0936C176.849 13.311 176.916 13.5235 177.042 13.6985C177.169 13.8735 177.347 14.0015 177.552 14.0629C178.337 14.2991 179.156 14.3968 179.974 14.3518C181.569 14.3518 182.773 14.6268 183.587 15.1767C183.979 15.4408 184.297 15.8048 184.509 16.2329C184.721 16.6609 184.82 17.138 184.797 17.6172C184.798 18.0916 184.686 18.5592 184.47 18.9792C184.254 19.3993 183.941 19.759 183.557 20.0272C182.622 20.7011 181.493 21.0381 180.35 20.9852C179.371 20.9834 178.398 20.8401 177.459 20.5594C176.533 20.2896 175.65 19.8865 174.835 19.362Z" fill="#151515"/>
</svg>
