<svg width="18" height="18" viewBox="0 0 18 18" fill="none" xmlns="http://www.w3.org/2000/svg">
<path d="M2.13576 12.4649C-0.711948 9.6172 -0.711891 4.98355 2.13576 2.13581C4.98352 -0.711936 9.61714 -0.711936 12.4648 2.13581C14.8808 4.55173 15.2467 8.14482 13.5635 10.9506C13.5635 10.9506 13.4426 11.1535 13.6059 11.3166C14.5374 12.2481 17.3323 15.043 17.3323 15.043C18.074 15.7846 18.2505 16.8217 17.5928 17.4796L17.4796 17.5927C16.8218 18.2505 15.7847 18.074 15.043 17.3323C15.043 17.3323 12.2541 14.5434 11.3245 13.6138C11.1534 13.4427 10.9506 13.5636 10.9506 13.5636C8.14481 15.2467 4.55169 14.8809 2.13576 12.4649ZM11.1164 11.1165C13.2206 9.01229 13.2206 5.58857 11.1164 3.48438C9.01217 1.38025 5.58843 1.38019 3.48429 3.48438C1.38008 5.58852 1.38008 9.01229 3.48429 11.1165C5.58849 13.2206 9.01217 13.2206 11.1164 11.1165Z" fill="#151515"/>
</svg>
